<svg viewBox="0 0 24 24" fill="none" xmlns="http://www.w3.org/2000/svg" id="Gps--Streamline-Solar" height="24" width="24">
  <desc>
    GPS Streamline Icon: https://streamlinehq.com
  </desc>
  <path fill-rule="evenodd" clip-rule="evenodd" d="M2 12c0 0.3853 0.31236 0.6977 0.69767 0.6977h1.89274c0.33037 3.5532 3.15873 6.3815 6.71189 6.7119v1.8927c0 0.3853 0.3124 0.6977 0.6977 0.6977s0.6977 -0.3124 0.6977 -0.6977v-1.8927c3.5532 -0.3304 6.3815 -3.1587 6.7119 -6.7119h1.8927c0.3853 0 0.6977 -0.3124 0.6977 -0.6977s-0.3124 -0.6977 -0.6977 -0.6977h-1.8927c-0.3304 -3.55316 -3.1587 -6.38152 -6.7119 -6.71189V2.69767C12.6977 2.31236 12.3853 2 12 2s-0.6977 0.31236 -0.6977 0.69767v1.89274c-3.55316 0.33037 -6.38152 3.15873 -6.71189 6.71189H2.69767C2.31236 11.3023 2 11.6147 2 12Zm6.51163 0c0 -1.9266 1.56177 -3.48837 3.48837 -3.48837S15.4884 10.0734 15.4884 12 13.9266 15.4884 12 15.4884c-1.9266 0 -3.48837 -1.5618 -3.48837 -3.4884Z" fill="#000000" stroke-width="1"></path>
  <path d="M9.90698 12c0 -1.1559 0.93712 -2.09302 2.09302 -2.09302 1.1559 0 2.093 0.93712 2.093 2.09302 0 1.1559 -0.9371 2.093 -2.093 2.093S9.90698 13.1559 9.90698 12Z" fill="#000000" stroke-width="1"></path>
</svg>