<svg xmlns="http://www.w3.org/2000/svg" viewBox="0 0 24 24" fill="none" stroke="#000000" stroke-linecap="round" stroke-linejoin="round" id="Satellite-Off--Streamline-Tabler" height="24" width="24">
  <desc>
    Satellite Off Streamline Icon: https://streamlinehq.com
  </desc>
  <path d="m7.707 3.707 5.586 5.586M12 12l-1.293 1.293a1 1 0 0 1 -1.414 0L3.707 7.707a1 1 0 0 1 0 -1.414L5 5" stroke-width="2"></path>
  <path d="m6 10 -3 3 3 3 3 -3" stroke-width="2"></path>
  <path d="m10 6 3 -3 3 3 -3 3" stroke-width="2"></path>
  <path d="m12 12 1.5 1.5" stroke-width="2"></path>
  <path d="M14.5 17c0.69 0 1.316 -0.28 1.769 -0.733" stroke-width="2"></path>
  <path d="M15 21c1.654 0 3.151 -0.67 4.237 -1.752m1.507 -2.507A6 6 0 0 0 21 15" stroke-width="2"></path>
  <path d="m3 3 18 18" stroke-width="2"></path>
</svg>